<svg width="639" height="476" viewBox="0 0 639 476" fill="none" xmlns="http://www.w3.org/2000/svg">
<g id="undraw_All_the_data_re_hh4w 1">
<path id="Vector" d="M254.382 460.926H89V268H254.382V460.926Z" fill="white"/>
<g id="Pie Graph">
<path id="Vector_2" d="M254.357 460.135H88.9754V267.209H254.357V460.135ZM90.2985 458.727H253.034V268.618H90.2985V458.727Z" fill="#3F3D56"/>
<path id="Vector_3" d="M231.865 441.914H197.466V443.398H231.865V441.914Z" fill="#3F3D56"/>
<path id="Vector_4" d="M231.865 446.367H197.466V447.851H231.865V446.367Z" fill="#3F3D56"/>
<path id="Vector_5" d="M231.865 450.82H197.466V452.304H231.865V450.82Z" fill="#3F3D56"/>
<path id="Vector_6" d="M171.666 301.71V317.201C180.302 317.201 188.743 319.926 195.923 325.033C203.103 330.139 208.699 337.397 212.004 345.888C215.308 354.38 216.173 363.724 214.488 372.738C212.804 381.753 208.645 390.033 202.539 396.532L212.83 407.485C220.972 398.82 226.516 387.779 228.762 375.76C231.008 363.741 229.856 351.282 225.449 339.96C221.043 328.638 213.582 318.961 204.009 312.153C194.435 305.344 183.18 301.71 171.666 301.71Z" fill="#E6E6E6"/>
<path id="Vector_7" d="M212.83 407.485L202.539 396.532C195.075 404.479 185.157 409.277 174.624 410.037C164.09 410.797 153.655 407.468 145.251 400.666L136.442 413.003C147.65 422.069 161.564 426.506 175.608 425.491C189.653 424.477 202.876 418.08 212.83 407.485Z" fill="#575A89"/>
<path id="Vector_8" d="M128.006 363.672C128.006 357.569 129.135 351.526 131.329 345.888C133.523 340.25 136.739 335.127 140.794 330.812C144.848 326.497 149.661 323.074 154.958 320.738C160.255 318.403 165.933 317.201 171.666 317.201V301.71C159.48 301.71 147.601 305.781 137.703 313.348C127.805 320.916 120.389 331.598 116.498 343.891C112.608 356.183 112.44 369.465 116.018 381.864C119.596 394.263 126.74 405.154 136.442 413.003L145.251 400.666C139.888 396.336 135.539 390.743 132.547 384.324C129.555 377.906 128.001 370.837 128.006 363.672Z" fill="#6C63FF"/>
</g>
<g id="Graph 2">
<g id="Group 1">
<path id="Vector_9" d="M499.122 340.437H333.741V147.511H499.122V340.437Z" fill="white"/>
<path id="Vector_10" d="M499.122 340.437H333.741V147.511H499.122V340.437ZM335.064 339.028H497.799V148.919H335.064V339.028Z" fill="#3F3D56"/>
<path id="Vector_11" d="M387.324 265.449H357.556V316.145H387.324V265.449Z" fill="#575A89"/>
<path id="Vector_12" d="M430.324 230.948H400.555V316.145H430.324V230.948Z" fill="#E6E6E6"/>
<path id="Vector_13" d="M473.323 190.813H443.554V316.145H473.323V190.813Z" fill="#6C63FF"/>
<path id="Vector_14" d="M483.246 317.553H349.617V170.394H350.94V316.145H483.246V317.553Z" fill="#3F3D56"/>
</g>
</g>
<g id="Graph 1">
<path id="Vector_15" d="M289.749 192.926H0V0H289.749V192.926Z" fill="white"/>
<path id="Vector_16" d="M249.51 152.577H40.2392C40.0655 152.577 39.8989 152.504 39.7761 152.373C39.6533 152.243 39.5843 152.065 39.5843 151.88V45.1208C39.5843 44.9359 39.6533 44.7586 39.7761 44.6279C39.8989 44.4971 40.0655 44.4237 40.2392 44.4237C40.4129 44.4237 40.5795 44.4971 40.7023 44.6279C40.8251 44.7586 40.8941 44.9359 40.8941 45.1208V151.183H249.51C249.596 151.183 249.681 151.201 249.761 151.236C249.841 151.271 249.913 151.322 249.974 151.387C250.035 151.451 250.084 151.528 250.117 151.613C250.15 151.698 250.167 151.789 250.167 151.88C250.167 151.972 250.15 152.063 250.117 152.148C250.084 152.232 250.035 152.309 249.974 152.374C249.913 152.439 249.841 152.49 249.761 152.525C249.681 152.56 249.596 152.578 249.51 152.577V152.577Z" fill="#3F3D56"/>
<path id="Vector_17" d="M84.9512 144.91H65.9173C65.4019 144.909 64.9077 144.691 64.5432 144.303C64.1788 143.915 63.9737 143.389 63.9731 142.841V114.913C63.9737 114.365 64.1788 113.839 64.5432 113.451C64.9077 113.063 65.4019 112.845 65.9173 112.844H84.9512C85.4666 112.845 85.9608 113.063 86.3252 113.451C86.6897 113.839 86.8948 114.365 86.8954 114.913V142.84C86.8948 143.389 86.6897 143.915 86.3253 144.303C85.9608 144.691 85.4666 144.909 84.9512 144.91V144.91Z" fill="#6C63FF"/>
<path id="Vector_18" d="M119.662 144.91H100.628C100.113 144.909 99.6185 144.691 99.2541 144.303C98.8896 143.915 98.6846 143.389 98.6839 142.841V88.4243C98.6846 87.8757 98.8896 87.3498 99.2541 86.9619C99.6185 86.574 100.113 86.3558 100.628 86.3552H119.662C120.177 86.3558 120.672 86.574 121.036 86.9619C121.401 87.3498 121.606 87.8757 121.606 88.4243V142.841C121.606 143.389 121.401 143.915 121.036 144.303C120.672 144.691 120.177 144.909 119.662 144.91V144.91Z" fill="#6C63FF"/>
<path id="Vector_19" d="M154.373 144.91H135.339C134.824 144.909 134.329 144.691 133.965 144.303C133.6 143.915 133.395 143.389 133.395 142.841V114.913C133.395 114.365 133.6 113.839 133.965 113.451C134.329 113.063 134.824 112.845 135.339 112.844H154.373C154.888 112.845 155.382 113.063 155.747 113.451C156.111 113.839 156.316 114.365 156.317 114.913V142.84C156.316 143.389 156.111 143.915 155.747 144.303C155.382 144.691 154.888 144.909 154.373 144.91V144.91Z" fill="#6C63FF"/>
<path id="Vector_20" d="M189.084 144.91H170.05C169.546 144.921 169.059 144.72 168.694 144.349C168.33 143.979 168.118 143.47 168.106 142.934V77.8744C168.118 77.3384 168.33 76.8294 168.694 76.4592C169.059 76.0889 169.546 75.8875 170.05 75.899H189.084C189.587 75.8875 190.075 76.0889 190.439 76.4592C190.804 76.8294 191.015 77.3384 191.028 77.8744V142.934C191.015 143.47 190.804 143.979 190.439 144.349C190.075 144.72 189.587 144.921 189.084 144.91V144.91Z" fill="#6C63FF"/>
<path id="Vector_21" d="M223.795 144.91H204.761C204.245 144.909 203.751 144.691 203.387 144.303C203.022 143.915 202.817 143.389 202.816 142.841V59.147C202.817 58.5985 203.022 58.0725 203.387 57.6846C203.751 57.2967 204.245 57.0786 204.761 57.0779H223.795C224.31 57.0786 224.804 57.2967 225.169 57.6846C225.533 58.0725 225.738 58.5985 225.739 59.147V142.841C225.738 143.389 225.533 143.915 225.169 144.303C224.804 144.691 224.31 144.909 223.795 144.91V144.91Z" fill="#6C63FF"/>
<path id="Vector_22" d="M75.4342 104.479C77.6044 104.479 79.3638 102.607 79.3638 100.297C79.3638 97.9868 77.6044 96.1143 75.4342 96.1143C73.264 96.1143 71.5047 97.9868 71.5047 100.297C71.5047 102.607 73.264 104.479 75.4342 104.479Z" fill="#3F3D56"/>
<path id="Vector_23" d="M110.145 77.2932C112.315 77.2932 114.075 75.4207 114.075 73.1108C114.075 70.8008 112.315 68.9283 110.145 68.9283C107.975 68.9283 106.216 70.8008 106.216 73.1108C106.216 75.4207 107.975 77.2932 110.145 77.2932Z" fill="#3F3D56"/>
<path id="Vector_24" d="M144.856 104.479C147.026 104.479 148.785 102.607 148.785 100.297C148.785 97.9868 147.026 96.1143 144.856 96.1143C142.686 96.1143 140.926 97.9868 140.926 100.297C140.926 102.607 142.686 104.479 144.856 104.479Z" fill="#3F3D56"/>
<path id="Vector_25" d="M179.567 64.0488C181.737 64.0488 183.496 62.1762 183.496 59.8663C183.496 57.5564 181.737 55.6838 179.567 55.6838C177.397 55.6838 175.637 57.5564 175.637 59.8663C175.637 62.1762 177.397 64.0488 179.567 64.0488Z" fill="#3F3D56"/>
<path id="Vector_26" d="M214.278 48.713C216.448 48.713 218.207 46.8405 218.207 44.5305C218.207 42.2206 216.448 40.3481 214.278 40.3481C212.107 40.3481 210.348 42.2206 210.348 44.5305C210.348 46.8405 212.107 48.713 214.278 48.713Z" fill="#3F3D56"/>
<path id="Vector_27" d="M144.938 101.234L110.145 73.4955L75.8267 100.855L75.0416 99.7385L110.145 71.7531L144.773 99.3595L179.184 59.2793L179.322 59.2195L214.033 44.3334L214.522 45.6273L179.949 60.4536L144.938 101.234Z" fill="#3F3D56"/>
</g>
</g>
</svg>
